<svg width="428" height="926" viewBox="0 0 428 926" fill="none" xmlns="http://www.w3.org/2000/svg">
<rect width="428" height="926" rx="40" fill="white"/>
<path opacity="0.35" d="M366.5 17.9999C366.5 16.8033 367.47 15.8333 368.667 15.8333H385.334C386.53 15.8333 387.5 16.8033 387.5 17.9999V23.9999C387.5 25.1965 386.53 26.1666 385.334 26.1666H368.667C367.47 26.1666 366.5 25.1965 366.5 23.9999V17.9999Z" stroke="#3A3A3A"/>
<path opacity="0.4" d="M389 19V23C389.805 22.6612 390.328 21.8731 390.328 21C390.328 20.1269 389.805 19.3388 389 19Z" fill="#3A3A3A"/>
<path d="M368 18.4333C368 17.8257 368.493 17.3333 369.1 17.3333H384.9C385.508 17.3333 386 17.8257 386 18.4333V23.5666C386 24.1741 385.508 24.6666 384.9 24.6666H369.1C368.493 24.6666 368 24.1741 368 23.5666V18.4333Z" fill="#3A3A3A"/>
<path fill-rule="evenodd" clip-rule="evenodd" d="M353.331 17.6079C355.547 17.608 357.678 18.4594 359.284 19.9862C359.405 20.1041 359.598 20.1026 359.717 19.9829L360.873 18.8162C360.933 18.7555 360.967 18.6733 360.966 18.5877C360.966 18.5021 360.931 18.4202 360.87 18.3602C356.655 14.3207 350.005 14.3207 345.79 18.3602C345.729 18.4202 345.695 18.502 345.694 18.5876C345.694 18.6732 345.727 18.7555 345.787 18.8162L346.944 19.9829C347.063 20.1028 347.256 20.1043 347.377 19.9862C348.983 18.4593 351.115 17.6079 353.331 17.6079ZM353.331 21.4036C354.548 21.4035 355.722 21.856 356.625 22.6732C356.747 22.7892 356.939 22.7867 357.058 22.6676L358.213 21.5009C358.274 21.4397 358.307 21.3567 358.306 21.2704C358.305 21.1842 358.27 21.1018 358.208 21.0419C355.46 18.4855 351.204 18.4855 348.456 21.0419C348.394 21.1018 348.358 21.1842 348.357 21.2705C348.357 21.3568 348.39 21.4398 348.451 21.5009L349.606 22.6676C349.725 22.7867 349.917 22.7892 350.039 22.6732C350.941 21.8566 352.114 21.4041 353.331 21.4036ZM355.644 23.9574C355.645 24.0439 355.611 24.1273 355.55 24.1879L353.552 26.2036C353.494 26.2628 353.414 26.2961 353.331 26.2961C353.247 26.2961 353.168 26.2628 353.109 26.2036L351.111 24.1879C351.05 24.1272 351.016 24.0438 351.018 23.9573C351.019 23.8708 351.057 23.7889 351.121 23.7309C352.397 22.652 354.265 22.652 355.54 23.7309C355.605 23.7889 355.642 23.8709 355.644 23.9574Z" fill="#3A3A3A"/>
<path fill-rule="evenodd" clip-rule="evenodd" d="M339.667 15.6665H338.667C338.115 15.6665 337.667 16.1142 337.667 16.6665V25.3332C337.667 25.8855 338.115 26.3332 338.667 26.3332H339.667C340.219 26.3332 340.667 25.8855 340.667 25.3332V16.6665C340.667 16.1142 340.219 15.6665 339.667 15.6665ZM334 17.9998H335C335.553 17.9998 336 18.4476 336 18.9998V25.3332C336 25.8855 335.553 26.3332 335 26.3332H334C333.448 26.3332 333 25.8855 333 25.3332V18.9998C333 18.4476 333.448 17.9998 334 17.9998ZM330.334 20.3332H329.334C328.781 20.3332 328.334 20.7809 328.334 21.3332V25.3332C328.334 25.8855 328.781 26.3332 329.334 26.3332H330.334C330.886 26.3332 331.334 25.8855 331.334 25.3332V21.3332C331.334 20.7809 330.886 20.3332 330.334 20.3332ZM325.667 22.3332H324.667C324.115 22.3332 323.667 22.7809 323.667 23.3332V25.3332C323.667 25.8855 324.115 26.3332 324.667 26.3332H325.667C326.219 26.3332 326.667 25.8855 326.667 25.3332V23.3332C326.667 22.7809 326.219 22.3332 325.667 22.3332Z" fill="#3A3A3A"/>
<path d="M54.2223 15.2045C54.7791 15.2083 55.3208 15.3068 55.8473 15.5C56.3776 15.6894 56.8549 16 57.2791 16.4318C57.7034 16.8598 58.0405 17.4337 58.2905 18.1534C58.5405 18.8731 58.6655 19.7633 58.6655 20.8239C58.6693 21.8239 58.5632 22.7178 58.3473 23.5057C58.1352 24.2898 57.8303 24.9527 57.4325 25.4943C57.0348 26.036 56.5556 26.4489 55.995 26.733C55.4344 27.017 54.8037 27.1591 54.103 27.1591C53.3681 27.1591 52.7166 27.0152 52.1484 26.7273C51.584 26.4394 51.1276 26.0455 50.7791 25.5455C50.4306 25.0455 50.2166 24.4735 50.1371 23.8295H52.2109C52.317 24.2917 52.5329 24.6591 52.8587 24.9318C53.1882 25.2008 53.603 25.3352 54.103 25.3352C54.9098 25.3352 55.531 24.9848 55.9666 24.2841C56.4022 23.5833 56.62 22.6098 56.62 21.3636H56.5405C56.3549 21.697 56.1143 21.9848 55.8189 22.2273C55.5234 22.4659 55.1882 22.6496 54.8132 22.7784C54.442 22.9072 54.0481 22.9716 53.6314 22.9716C52.9496 22.9716 52.3359 22.8087 51.7905 22.483C51.2488 22.1572 50.8189 21.7102 50.5007 21.142C50.1863 20.5739 50.0272 19.9242 50.0234 19.1932C50.0234 18.4356 50.1977 17.7557 50.5462 17.1534C50.8984 16.5473 51.389 16.0701 52.0178 15.7216C52.6465 15.3693 53.3814 15.197 54.2223 15.2045ZM54.228 16.9091C53.8189 16.9091 53.4496 17.0095 53.12 17.2102C52.7943 17.4072 52.5367 17.6761 52.3473 18.017C52.1617 18.3542 52.0689 18.7311 52.0689 19.1477C52.0727 19.5606 52.1655 19.9356 52.3473 20.2727C52.5329 20.6098 52.7848 20.8769 53.103 21.0739C53.425 21.2708 53.7924 21.3693 54.2053 21.3693C54.5121 21.3693 54.7981 21.3106 55.0632 21.1932C55.3284 21.0758 55.5594 20.9129 55.7564 20.7045C55.9571 20.4924 56.1125 20.2519 56.2223 19.983C56.3359 19.714 56.3909 19.4299 56.3871 19.1307C56.3871 18.733 56.2924 18.3655 56.103 18.0284C55.9174 17.6913 55.6617 17.4205 55.3359 17.2159C55.014 17.0114 54.6446 16.9091 54.228 16.9091ZM61.3473 25.6023C61.0026 25.6023 60.7071 25.4811 60.4609 25.2386C60.2147 24.9924 60.0935 24.697 60.0973 24.3523C60.0935 24.0114 60.2147 23.7197 60.4609 23.4773C60.7071 23.2348 61.0026 23.1136 61.3473 23.1136C61.6806 23.1136 61.9704 23.2348 62.2166 23.4773C62.4666 23.7197 62.5935 24.0114 62.5973 24.3523C62.5935 24.5833 62.5329 24.7936 62.4155 24.983C62.3018 25.1723 62.1503 25.3239 61.9609 25.4375C61.7753 25.5473 61.5708 25.6023 61.3473 25.6023ZM61.3473 19.8352C61.0026 19.8352 60.7071 19.714 60.4609 19.4716C60.2147 19.2254 60.0935 18.9299 60.0973 18.5852C60.0935 18.2443 60.2147 17.9527 60.4609 17.7102C60.7071 17.464 61.0026 17.3409 61.3473 17.3409C61.6806 17.3409 61.9704 17.464 62.2166 17.7102C62.4666 17.9527 62.5935 18.2443 62.5973 18.5852C62.5935 18.8125 62.5329 19.0208 62.4155 19.2102C62.3018 19.3996 62.1503 19.5511 61.9609 19.6648C61.7753 19.7784 61.5708 19.8352 61.3473 19.8352ZM63.9879 24.8409V23.1648L68.9254 15.3636H70.3232V17.75H69.4709L66.147 23.017V23.108H73.0391V24.8409H63.9879ZM69.5391 27V24.3295L69.5618 23.5795V15.3636H71.5504V27H69.5391ZM78.9311 15.3636V27H76.8232V17.4148H76.755L74.0334 19.1534V17.2216L76.9254 15.3636H78.9311Z" fill="#3A3A3A"/>
<rect x="16" y="49" width="396" height="827" rx="8" stroke="#A98157" stroke-width="4"/>
<path d="M388.667 96.625L377 87.6667L365.333 96.625V67.9583C365.333 67.008 365.685 66.0965 366.31 65.4245C366.935 64.7525 367.783 64.375 368.667 64.375H385.333C386.217 64.375 387.065 64.7525 387.69 65.4245C388.315 66.0965 388.667 67.008 388.667 67.9583V96.625Z" stroke="#A98157" stroke-width="4" stroke-linecap="round" stroke-linejoin="round"/>
</svg>

